<?xml version="1.0" standalone="no"?>
<!DOCTYPE svg PUBLIC "-//W3C//DTD SVG 20010904//EN"
 "http://www.w3.org/TR/2001/REC-SVG-20010904/DTD/svg10.dtd">
<svg version="1.0" xmlns="http://www.w3.org/2000/svg"
 width="1332.000000pt" height="1332.000000pt" viewBox="0 0 1332.000000 1332.000000"
 preserveAspectRatio="xMidYMid meet">

<g transform="translate(0.000000,1332.000000) scale(0.100000,-0.100000)"
fill="#000000" stroke="none">
<path d="M2095 13308 c-374 -25 -720 -108 -995 -239 -672 -321 -1029 -934
-1090 -1874 -14 -222 -14 -8865 0 -9077 46 -671 239 -1168 590 -1518 352 -353
852 -546 1525 -590 215 -14 8859 -14 9070 0 831 55 1400 337 1748 865 185 281
296 617 354 1070 16 132 18 392 21 4585 2 3090 0 4501 -8 4630 -25 432 -107
784 -250 1076 -223 457 -585 766 -1095 933 -242 80 -476 121 -790 141 -200 12
-8892 11 -9080 -2z m4609 -880 c8 -124 26 -551 26 -629 l0 -56 41 -7 c66 -11
153 -61 225 -131 39 -38 76 -65 88 -65 12 0 131 11 266 25 299 29 364 33 370
20 2 -6 -38 -15 -100 -22 -58 -6 -189 -23 -292 -37 -102 -14 -200 -26 -217
-26 -18 0 -31 -5 -31 -12 0 -38 25 -184 32 -189 9 -6 21 -5 423 52 571 80 677
97 964 155 662 133 1230 329 1446 498 127 100 145 110 157 98 48 -48 -269
-248 -562 -355 -225 -83 -313 -109 -1115 -328 -99 -27 -202 -56 -230 -64 -215
-63 -887 -204 -1091 -230 -45 -6 -58 -13 -118 -72 -43 -41 -92 -76 -134 -96
-62 -29 -75 -32 -167 -32 -92 1 -105 4 -169 34 -42 20 -93 57 -130 92 -33 33
-67 61 -76 63 -8 3 -82 17 -165 31 -265 46 -393 74 -640 137 -44 11 -108 27
-143 34 -35 8 -121 30 -190 50 -70 20 -194 53 -277 75 -198 51 -177 45 -365
96 -546 147 -784 234 -1040 381 -112 64 -243 182 -202 182 5 0 50 -31 101 -70
144 -109 440 -247 681 -319 41 -13 95 -29 120 -36 200 -60 592 -156 845 -206
200 -40 222 -43 480 -79 77 -11 172 -24 210 -30 95 -14 527 -70 544 -70 8 0
11 7 8 19 -3 11 2 54 10 97 8 42 11 80 6 84 -4 4 -96 17 -203 30 -107 12 -231
28 -275 36 -44 8 -95 14 -112 14 -23 0 -33 5 -33 15 0 18 2 18 105 5 142 -18
477 -50 514 -50 31 1 41 8 74 50 44 57 126 110 218 140 l66 22 6 141 c4 78 7
250 7 383 0 132 3 244 7 247 22 23 31 1 37 -95z m1402 -1173 c17 -7 53 -36 81
-64 65 -66 80 -118 59 -203 -30 -129 -145 -211 -269 -192 -162 25 -252 206
-177 354 51 100 196 150 306 105z m-2638 0 c80 -34 151 -131 152 -207 0 -82
-59 -191 -120 -223 -117 -61 -265 -22 -328 84 -23 40 -27 57 -27 126 0 66 4
87 24 122 26 45 80 88 127 103 47 14 132 11 172 -5z m-832 -1298 c475 -83 761
-245 999 -566 119 -160 219 -432 256 -696 19 -135 26 -445 24 -1030 -2 -625
-7 -681 -70 -921 -54 -205 -133 -372 -254 -530 -83 -111 -112 -140 -216 -221
-141 -110 -298 -194 -464 -247 -226 -73 -456 -96 -976 -96 -237 0 -336 -3
-341 -11 -4 -6 -8 -343 -11 -748 -2 -405 -6 -746 -8 -758 -3 -14 -16 -26 -33
-30 -35 -10 -1049 -10 -1084 0 -21 5 -29 16 -35 45 -10 47 -11 5758 0 5794 4
16 16 28 30 31 12 3 488 4 1057 2 896 -2 1047 -4 1126 -18z m3681 0 c17 -17
18 -80 23 -1147 3 -620 9 -1132 13 -1137 9 -9 1412 -11 1421 -2 3 3 6 450 7
995 1 544 4 1058 7 1141 l4 153 39 10 c61 17 1094 9 1111 -8 11 -11 13 -548
16 -2897 3 -3157 6 -2942 -54 -2966 -19 -6 -201 -9 -538 -7 -602 4 -568 -2
-577 98 -3 36 -7 575 -8 1199 -1 623 -4 1138 -7 1142 -3 5 -324 9 -713 9
l-708 0 -6 -332 c-4 -182 -7 -722 -7 -1200 0 -1004 13 -901 -112 -913 -130
-12 -1000 -2 -1025 12 -19 11 -22 24 -28 125 -9 164 -2 5700 8 5720 5 9 18 19
30 21 12 3 261 4 554 3 497 -1 534 -2 550 -19z m2311 -6222 c92 -28 211 -133
266 -237 11 -19 17 -42 13 -50 -5 -15 -188 -148 -203 -148 -4 0 -35 29 -68 64
-75 78 -113 98 -182 97 -96 -1 -144 -34 -144 -101 0 -47 34 -71 242 -176 200
-101 270 -151 334 -235 55 -73 69 -124 68 -244 0 -90 -4 -108 -33 -178 -91
-215 -293 -306 -558 -251 -89 18 -148 46 -220 103 -55 43 -126 151 -121 182 4
22 185 179 207 179 9 0 27 -16 39 -35 84 -122 214 -177 298 -126 57 35 81 124
48 180 -21 35 -57 59 -184 121 -58 28 -134 66 -169 83 -114 57 -221 174 -250
274 -14 50 -17 153 -6 203 34 155 196 283 400 314 48 7 170 -3 223 -19z
m-7541 -10 c26 -18 39 -58 97 -290 24 -99 65 -254 89 -345 25 -91 61 -226 81
-300 19 -74 53 -200 75 -281 22 -80 43 -164 47 -187 l7 -42 -135 0 c-102 0
-138 3 -147 14 -6 7 -27 75 -45 150 -19 75 -38 141 -41 146 -4 6 -71 10 -168
10 l-162 0 -33 -139 c-18 -76 -40 -148 -48 -159 -14 -21 -23 -22 -149 -22 -74
0 -136 4 -139 9 -3 4 6 48 20 97 15 49 50 179 79 289 72 274 264 994 273 1025
10 32 35 38 167 39 83 1 116 -3 132 -14z m971 9 l22 -6 0 -724 0 -724 -139 0
c-112 0 -140 3 -144 14 -3 8 -6 334 -7 724 0 566 2 711 12 715 18 8 229 8 256
1z m1059 -22 c115 -37 187 -117 219 -245 16 -59 19 -109 19 -277 0 -134 -5
-224 -14 -260 -15 -64 -68 -147 -122 -193 l-37 -32 43 -90 c43 -89 69 -146
119 -259 14 -32 23 -62 20 -67 -6 -11 -285 -12 -299 -1 -6 4 -16 24 -23 45 -8
21 -43 98 -78 172 -35 73 -64 138 -64 144 0 14 -39 23 -81 19 l-34 -3 -5 -190
-5 -190 -142 -3 -143 -3 0 725 0 725 33 4 c17 3 145 4 282 2 218 -2 258 -5
312 -23z m837 14 c14 -11 55 -159 180 -654 33 -134 65 -244 71 -244 11 0 161
437 170 498 5 29 -1 64 -20 128 -36 119 -73 274 -67 281 12 12 288 5 305 -8
12 -8 23 -41 32 -92 8 -44 28 -141 45 -215 50 -219 98 -448 106 -495 12 -80
29 -74 54 17 12 46 40 146 62 222 22 77 57 212 79 300 51 208 67 254 89 266
10 6 75 10 145 10 99 0 127 -3 131 -14 3 -8 -7 -52 -21 -98 -29 -91 -47 -157
-105 -383 -21 -82 -52 -197 -68 -255 -17 -58 -44 -157 -61 -220 -77 -297 -94
-359 -113 -415 -11 -33 -25 -63 -31 -67 -21 -13 -242 -9 -260 5 -11 8 -33 77
-62 197 -56 223 -86 330 -96 330 -4 0 -16 -24 -27 -52 -45 -114 -151 -406
-158 -434 -4 -16 -11 -35 -17 -41 -14 -18 -250 -18 -265 0 -6 7 -36 109 -66
227 -31 118 -65 249 -76 290 -25 88 -60 221 -100 375 -69 264 -81 311 -104
388 -36 122 -40 148 -25 158 20 13 255 9 273 -5z m2304 2 c5 -7 17 -47 26 -88
9 -41 37 -149 62 -240 25 -91 64 -235 85 -320 22 -85 48 -184 59 -220 10 -36
28 -99 39 -140 41 -156 111 -430 111 -435 0 -3 -63 -5 -139 -5 -101 0 -142 3
-148 13 -10 16 -40 122 -61 219 -13 61 -21 78 -37 82 -11 3 -86 6 -167 6 -164
0 -148 8 -168 -85 -12 -57 -47 -179 -60 -212 -9 -22 -14 -23 -144 -23 -79 0
-137 4 -141 10 -5 8 40 197 91 380 20 73 47 173 79 295 14 55 48 177 74 270
27 94 59 213 71 265 43 186 58 228 83 233 12 2 79 5 148 6 91 1 129 -3 137
-11z m858 -10 c11 -9 55 -89 99 -177 44 -89 85 -161 93 -161 7 0 51 78 98 174
46 96 91 177 100 180 27 10 272 7 279 -4 4 -6 -2 -25 -13 -43 -11 -17 -54
-111 -95 -207 -41 -96 -84 -195 -95 -220 -11 -25 -43 -98 -71 -162 l-51 -118
-1 -327 c0 -181 -5 -338 -10 -350 -8 -22 -13 -23 -144 -23 -100 0 -137 3 -140
13 -2 6 -6 161 -8 342 l-4 330 -35 90 c-20 50 -56 133 -81 187 -25 53 -65 140
-87 195 -23 54 -60 137 -82 185 -23 49 -38 94 -34 103 9 24 255 18 282 -7z
m-5642 -2016 c4 -15 15 -56 26 -92 11 -36 27 -92 36 -125 9 -33 27 -94 39
-135 31 -100 40 -166 25 -175 -18 -11 -31 8 -55 82 l-22 68 -84 0 -84 0 -11
-66 c-12 -76 -19 -89 -44 -89 -29 0 -32 15 -16 67 8 27 24 82 35 123 87 336
105 385 136 374 7 -3 16 -17 19 -32z m476 27 c44 -13 65 -44 78 -116 10 -57 8
-63 -19 -63 -12 0 -21 10 -25 28 -22 99 -35 115 -95 110 -33 -2 -47 -9 -63
-31 -20 -27 -21 -40 -19 -205 l2 -177 31 -27 c17 -16 41 -28 55 -28 37 0 73
39 82 90 7 39 12 45 35 48 27 3 27 3 23 -48 -8 -95 -57 -145 -140 -144 -62 1
-97 22 -122 72 -15 32 -18 63 -18 222 0 168 2 188 20 220 31 53 99 72 175 49z
m328 -276 l2 -283 -23 0 c-13 0 -28 5 -34 11 -10 10 -9 517 2 547 3 7 15 12
27 10 l23 -3 3 -282z m275 195 c25 -51 53 -115 62 -142 25 -77 33 -88 55 -76
11 6 24 27 29 47 6 21 30 84 53 141 41 100 63 127 93 116 6 -3 11 -110 13
-285 l3 -280 -28 3 -28 3 3 196 c3 127 0 199 -6 203 -6 3 -14 -4 -17 -16 -16
-56 -91 -221 -103 -225 -31 -13 -59 7 -71 49 -15 48 -76 165 -99 188 -13 13
-14 12 -8 -10 4 -14 9 -108 13 -208 l6 -184 -24 4 c-24 3 -24 5 -29 128 -3 69
-4 196 -2 283 3 144 4 157 21 157 13 0 31 -26 64 -92z m1420 81 c21 -5 52 -23
69 -38 30 -27 31 -32 39 -137 9 -129 6 -214 -10 -271 -23 -82 -106 -132 -195
-118 -78 13 -76 6 -76 296 l0 257 28 10 c36 14 99 14 145 1z m515 -9 c65 -40
72 -64 72 -263 0 -199 -7 -229 -61 -268 -44 -31 -126 -33 -166 -3 -66 49 -68
57 -68 262 0 211 9 245 68 275 45 22 115 21 155 -3z m461 2 c19 -9 42 -28 52
-42 24 -34 31 -104 13 -127 -13 -17 -15 -17 -29 1 -8 11 -15 28 -15 37 0 10
-9 34 -21 53 -49 83 -159 39 -159 -64 0 -33 39 -70 107 -102 23 -11 61 -37 83
-57 52 -47 63 -104 32 -172 -31 -67 -52 -82 -116 -82 -78 0 -137 43 -156 114
-13 48 -6 76 21 84 31 10 41 -8 39 -71 0 -27 6 -34 43 -54 41 -22 44 -22 75
-6 18 9 40 32 49 51 27 57 3 87 -137 168 -66 39 -100 86 -100 139 0 112 118
182 219 130z m1210 -5 c5 -12 23 -47 41 -77 18 -30 36 -66 41 -80 46 -148 73
-172 98 -90 7 25 32 92 55 149 31 78 47 106 64 112 13 5 28 7 32 4 5 -3 9
-132 9 -286 l1 -280 -27 3 -27 3 2 180 c3 172 -6 239 -24 190 -4 -11 -22 -56
-41 -100 -18 -44 -33 -85 -33 -92 0 -21 -31 -32 -61 -21 -22 8 -30 19 -40 61
-10 44 -89 187 -103 187 -3 0 -1 -12 3 -27 4 -16 9 -108 10 -205 2 -172 1
-178 -18 -178 -11 0 -22 4 -25 8 -5 8 -9 294 -7 465 1 90 3 97 21 97 12 0 24
-9 29 -23z m585 17 c14 -5 16 -40 16 -286 l0 -279 -32 3 -33 3 -3 269 c-3 296
0 310 52 290z m473 -8 c4 -4 2 -15 -3 -24 -8 -12 -27 -18 -63 -20 l-52 -3 2
-252 1 -252 -29 0 -28 0 -3 240 c-1 132 -5 246 -7 253 -3 7 -22 12 -49 12 -35
0 -48 5 -56 20 -6 11 -8 25 -4 31 7 12 279 7 291 -5z m412 8 c25 -5 31 -12 31
-31 l0 -25 -111 3 -111 4 0 -95 0 -95 114 -5 c112 -5 115 -6 110 -40 -1 -5
-52 -11 -114 -12 l-112 -3 3 -95 c1 -52 5 -97 8 -100 2 -3 50 -7 106 -8 56 -2
106 -7 110 -12 5 -4 6 -17 2 -29 -6 -20 -13 -21 -134 -21 -101 0 -131 3 -141
15 -9 10 -11 82 -8 277 l3 262 25 7 c32 9 178 11 219 3z m382 -6 c18 -6 41
-21 51 -32 23 -29 42 -100 34 -131 -9 -34 -38 -29 -48 8 -5 15 -11 39 -16 54
-4 15 -22 36 -40 46 -46 27 -91 14 -114 -33 -33 -66 -5 -109 105 -167 37 -20
79 -50 93 -66 23 -28 26 -38 22 -93 -5 -87 -42 -140 -104 -150 -57 -8 -86 0
-127 36 -55 48 -74 147 -31 164 25 9 33 -1 40 -52 7 -54 39 -85 85 -85 34 0
48 11 72 56 18 33 18 35 0 73 -14 30 -32 47 -83 74 -126 67 -140 85 -140 168
0 108 93 168 201 130z m-4787 -26 c8 -15 19 -53 25 -85 6 -32 13 -63 17 -68 8
-13 41 -129 70 -244 26 -102 28 -135 10 -135 -22 0 -43 35 -59 100 l-14 55
-76 3 c-87 3 -86 4 -106 -90 -12 -56 -27 -73 -56 -62 -19 8 -19 9 5 85 12 35
37 127 56 204 44 179 61 243 69 255 12 20 45 10 59 -18z m2298 -219 l3 -248
65 -3 c90 -3 110 -9 110 -32 0 -10 -6 -22 -12 -26 -21 -13 -211 -5 -221 9 -8
12 -7 468 1 520 3 20 10 27 28 27 l24 0 2 -247z m398 240 c1 -44 1 -514 1
-531 -1 -19 -6 -23 -28 -20 l-28 3 -1 270 c0 149 1 273 3 278 2 4 15 7 29 7
13 0 24 -3 24 -7z"/>
<path d="M6457 11464 c-4 -4 -7 -18 -7 -31 0 -39 38 -47 225 -47 205 -1 258
10 253 52 l-3 27 -231 3 c-127 1 -233 -1 -237 -4z"/>
<path d="M7922 11194 c-18 -10 -45 -33 -60 -52 -23 -31 -27 -45 -27 -107 0
-63 3 -76 28 -108 37 -49 75 -67 140 -67 91 0 161 68 174 170 7 47 -24 109
-73 146 -46 35 -132 44 -182 18z"/>
<path d="M5292 11194 c-91 -47 -130 -186 -73 -264 47 -65 158 -90 231 -52 44
23 90 108 90 166 0 114 -145 202 -248 150z"/>
<path d="M3167 9632 l-417 -2 2 -2598 3 -2597 234 -3 c129 -1 238 1 242 5 5 5
9 351 9 771 2 705 3 763 19 771 9 5 295 11 636 14 383 3 645 9 684 16 211 36
401 110 540 208 225 160 360 379 434 705 20 89 21 124 24 833 3 482 1 774 -6
838 -29 266 -143 551 -279 698 -158 170 -376 276 -657 318 -134 20 -451 32
-750 29 -165 -2 -488 -4 -718 -6z m1038 -527 c205 -20 347 -61 480 -138 68
-39 198 -169 243 -242 20 -33 46 -75 59 -93 12 -18 27 -58 33 -88 7 -31 18
-71 26 -90 24 -57 44 -358 44 -664 0 -334 -19 -509 -68 -652 -98 -283 -217
-418 -463 -526 -221 -96 -438 -124 -972 -121 -318 1 -328 2 -338 22 -8 14 -10
389 -5 1311 6 1109 8 1292 21 1296 33 12 795 0 940 -15z"/>
<path d="M3585 8678 c-3 -57 -5 -494 -3 -973 l3 -870 270 1 c235 1 283 4 371
22 332 71 479 231 513 560 13 123 14 605 1 787 -31 463 -212 575 -926 575
l-222 0 -7 -102z"/>
<path d="M7693 9632 l-183 -2 0 -328 c-2 -1316 -2 -2372 -1 -3530 l1 -1342
243 2 242 3 5 1220 5 1220 1057 3 1058 2 2 -1222 3 -1223 245 0 245 0 0 2598
0 2598 -240 -1 c-131 0 -241 -3 -245 -6 -3 -3 -7 -522 -8 -1152 -2 -631 -6
-1149 -9 -1152 -2 -3 -478 -5 -1056 -5 l-1052 0 -3 1157 -2 1156 -63 4 c-34 1
-144 2 -244 0z"/>
<path d="M10370 3657 c-174 -41 -286 -162 -284 -307 1 -83 16 -128 66 -191 50
-63 148 -128 286 -187 168 -72 237 -128 267 -217 52 -155 -91 -304 -267 -281
-64 9 -89 22 -161 85 -32 28 -64 51 -70 51 -7 0 -29 -16 -49 -36 -37 -34 -37
-36 -23 -64 16 -32 83 -89 134 -115 193 -98 449 -49 546 105 70 111 72 277 5
383 -45 71 -130 131 -315 222 -175 86 -237 131 -270 195 -34 66 2 168 75 209
19 10 63 25 98 32 103 20 185 -8 282 -94 35 -31 55 -30 89 7 l23 24 -25 39
c-31 49 -89 96 -152 124 -59 26 -179 33 -255 16z"/>
<path d="M2846 3588 c-23 -90 -105 -399 -131 -493 -12 -44 -41 -152 -64 -240
-23 -88 -52 -196 -66 -240 -24 -81 -65 -232 -65 -239 0 -9 81 -15 103 -7 18 7
26 21 36 68 27 119 62 228 79 241 26 20 432 13 443 -8 4 -8 22 -76 39 -150 18
-74 35 -139 39 -143 10 -10 77 -16 103 -9 15 3 18 10 13 26 -4 11 -20 73 -36
136 -17 63 -50 185 -74 270 -24 85 -64 234 -89 330 -25 96 -64 238 -87 315
-23 77 -44 155 -47 173 l-4 32 -88 0 -88 0 -16 -62z m119 -125 c4 -21 11 -49
16 -63 4 -14 33 -115 63 -225 30 -110 66 -238 80 -284 14 -47 23 -88 20 -93
-3 -4 -90 -8 -195 -8 -159 0 -189 2 -189 15 0 13 130 514 166 643 9 28 19 52
24 52 5 0 12 -17 15 -37z"/>
<path d="M2942 3158 c-6 -13 -23 -61 -37 -108 -14 -47 -30 -99 -35 -116 -17
-54 -17 -54 80 -54 50 0 90 3 90 8 0 4 -13 54 -29 112 -16 58 -33 122 -36 143
-8 43 -17 46 -33 15z"/>
<path d="M3881 3643 c0 -5 -2 -292 -6 -639 l-5 -631 51 -6 c92 -11 84 -72 81
647 l-2 636 -60 0 c-33 0 -60 -3 -59 -7z"/>
<path d="M4570 3012 l0 -640 53 -4 c28 -2 58 -2 65 0 11 4 12 42 9 188 -3 129
-1 186 7 192 6 4 63 6 126 4 l116 -4 21 -46 c26 -58 122 -279 134 -309 7 -18
17 -23 46 -24 38 -1 97 2 100 4 1 1 -31 70 -71 152 -40 83 -79 168 -87 189
-14 38 -14 39 21 64 19 15 56 47 82 73 61 62 78 117 85 284 11 244 -25 385
-115 452 -67 51 -97 56 -354 60 l-238 5 0 -640z m458 493 c91 -37 122 -114
122 -301 0 -100 -4 -134 -21 -178 -24 -65 -78 -116 -141 -135 -55 -17 -258
-25 -278 -12 -13 9 -16 58 -18 316 -2 169 -1 313 2 322 9 23 272 14 334 -12z"/>
<path d="M4780 3201 l0 -241 60 0 c77 0 149 16 178 40 34 28 42 70 42 218 0
198 -10 211 -176 220 l-104 5 0 -242z"/>
<path d="M5784 3633 c2 -10 16 -67 31 -128 15 -60 62 -240 105 -400 43 -159
83 -312 89 -340 6 -27 25 -99 42 -160 16 -60 37 -138 45 -172 15 -62 16 -63
52 -65 61 -3 96 2 110 15 11 12 31 62 102 262 16 44 52 145 80 225 29 80 57
162 62 183 10 35 30 48 43 28 3 -5 35 -126 71 -268 86 -337 90 -351 107 -398
14 -38 18 -40 69 -48 74 -11 95 -4 103 35 4 18 34 132 67 253 34 121 87 317
119 435 31 118 78 291 103 385 25 93 46 170 46 172 0 2 -27 3 -60 3 l-59 0
-11 -42 c-6 -24 -20 -74 -32 -112 -21 -74 -39 -137 -92 -336 -19 -69 -46 -165
-60 -215 -14 -49 -47 -172 -72 -273 -43 -167 -54 -197 -60 -157 -3 20 -42 196
-69 310 -13 55 -46 197 -74 315 -28 118 -60 258 -70 310 -11 52 -26 118 -33
145 l-13 50 -62 3 c-35 2 -63 -1 -63 -5 0 -4 9 -40 20 -78 30 -105 50 -193 50
-224 0 -34 -26 -118 -138 -446 -48 -143 -95 -285 -103 -315 -19 -66 -40 -72
-52 -15 -17 80 -108 434 -151 590 -24 88 -61 225 -81 305 -53 206 -44 190
-110 190 -49 0 -56 -2 -51 -17z"/>
<path d="M8022 3633 c-14 -28 -117 -393 -147 -523 -7 -30 -36 -138 -65 -240
-54 -194 -131 -493 -127 -496 3 -3 70 -7 95 -5 27 1 22 -11 63 169 28 121 36
143 54 148 11 2 112 3 225 2 l204 -3 33 -100 c18 -55 39 -126 45 -157 l12 -58
58 0 c70 0 69 -4 28 140 -17 58 -47 166 -66 240 -19 74 -48 180 -64 235 -16
55 -54 197 -85 315 -31 118 -64 244 -74 280 l-17 65 -81 3 c-70 2 -83 0 -91
-15z m93 -153 c3 -5 19 -61 36 -124 16 -63 54 -204 85 -313 31 -109 59 -210
61 -226 l5 -27 -193 2 -194 3 3 30 c2 17 14 64 27 105 24 74 125 477 125 498
0 6 4 22 10 36 10 27 24 33 35 16z"/>
<path d="M8080 3128 c-22 -84 -60 -215 -66 -231 -5 -15 4 -17 83 -17 49 0 92
3 96 6 3 3 2 18 -3 32 -24 78 -59 200 -64 225 -9 41 -34 33 -46 -15z"/>
<path d="M8964 3646 c-3 -8 1 -28 9 -43 8 -15 27 -59 43 -98 15 -38 68 -158
117 -265 49 -107 93 -208 98 -225 5 -16 10 -168 9 -336 l0 -307 36 -4 c20 -2
49 -2 65 0 l29 4 0 302 c1 351 -14 286 152 656 63 140 120 270 126 288 l11 32
-53 0 c-31 0 -58 -5 -64 -12 -5 -7 -58 -109 -116 -225 -59 -117 -113 -213
-120 -213 -7 0 -44 60 -81 133 -38 72 -88 170 -112 217 -24 47 -54 91 -66 97
-30 17 -76 16 -83 -1z"/>
<path d="M3425 1610 c1 -20 -10 -67 -26 -108 -44 -110 -43 -112 42 -112 62 0
70 2 65 18 -3 9 -10 46 -16 82 -15 85 -38 140 -50 121 -6 -11 -9 -9 -13 10 -2
13 -3 8 -2 -11z"/>
<path d="M5868 1683 c-16 -4 -18 -23 -18 -221 0 -208 1 -218 20 -230 23 -14
79 -3 117 23 32 23 46 101 42 243 -4 120 -4 122 -34 151 -30 29 -89 45 -127
34z"/>
<path d="M6349 1664 c-23 -25 -24 -31 -27 -199 -2 -103 1 -182 7 -193 5 -10
25 -26 44 -37 34 -18 35 -18 68 1 52 31 62 61 66 219 4 125 2 144 -15 175 -35
63 -101 79 -143 34z"/>
<path d="M5175 1602 c4 -27 3 -48 -5 -57 -16 -19 -42 -137 -33 -146 9 -9 110
-15 118 -8 8 8 -52 206 -70 231 -16 22 -17 22 -10 -20z"/>
</g>
</svg>
