<?xml version="1.0" standalone="no"?>
<!DOCTYPE svg PUBLIC "-//W3C//DTD SVG 20010904//EN"
 "http://www.w3.org/TR/2001/REC-SVG-20010904/DTD/svg10.dtd">
<svg version="1.0" xmlns="http://www.w3.org/2000/svg"
 width="512.000000pt" height="512.000000pt" viewBox="0 0 512.000000 512.000000"
 preserveAspectRatio="xMidYMid meet">

<g transform="translate(0.000000,512.000000) scale(0.100000,-0.100000)"
fill="#000000" stroke="none">
<path d="M990 5114 c-245 -44 -390 -190 -390 -394 0 -109 39 -213 112 -296 17
-19 397 -335 844 -701 l813 -666 -17 -23 c-53 -69 -1178 -1304 -1188 -1304 -6
0 -144 40 -306 89 -375 113 -385 115 -553 115 -126 1 -146 -2 -199 -24 -76
-32 -101 -65 -101 -133 0 -68 40 -148 118 -233 32 -35 181 -162 331 -283 l273
-219 -25 -124 c-28 -132 -26 -161 11 -204 33 -38 89 -41 217 -11 58 13 108 23
112 20 4 -2 105 -126 226 -276 235 -293 295 -354 389 -405 184 -97 283 -5 282
263 0 132 -18 216 -121 558 l-92 308 24 23 c115 111 1304 1175 1309 1171 3 -3
308 -374 676 -823 436 -532 687 -829 719 -853 141 -107 340 -118 473 -28 116
79 192 242 193 410 0 120 -22 171 -524 1223 -268 559 -483 1023 -479 1029 3 7
114 164 245 350 293 415 327 466 385 586 120 251 136 386 59 491 -100 138
-264 135 -556 -9 -134 -66 -134 -67 -588 -388 -189 -134 -346 -243 -349 -243
-3 0 -453 214 -1001 477 -549 262 -1028 487 -1067 501 -68 24 -195 37 -255 26z"/>
</g>
</svg>
