<?xml version="1.0" standalone="no"?>
<!DOCTYPE svg PUBLIC "-//W3C//DTD SVG 20010904//EN"
 "http://www.w3.org/TR/2001/REC-SVG-20010904/DTD/svg10.dtd">
<svg version="1.0" xmlns="http://www.w3.org/2000/svg"
 width="925.000000pt" height="1280.000000pt" viewBox="0 0 925.000000 1280.000000"
 preserveAspectRatio="xMidYMid meet">
<g transform="translate(0.000000,1280.000000) scale(0.100000,-0.100000)"
fill="#000000" stroke="none">
<path d="M411 12779 c-194 -56 -323 -181 -383 -373 -33 -104 -34 -122 -12
-208 24 -96 67 -177 131 -249 32 -36 694 -711 1470 -1499 l1413 -1434 2 -4270
3 -4271 26 -77 c15 -43 41 -100 59 -128 43 -67 144 -159 213 -194 63 -31 231
-76 286 -76 55 0 221 44 282 75 120 60 219 163 268 278 53 124 51 -2 51 2646
0 2224 1 2449 16 2455 23 9 177 7 191 -2 10 -6 13 -534 15 -2487 l3 -2480 28
-78 c15 -43 42 -102 61 -130 44 -69 137 -154 214 -195 68 -36 233 -82 297 -82
63 0 229 46 297 82 80 41 184 145 225 223 68 131 67 108 70 862 l4 683 1187 0
c653 0 1193 4 1200 8 10 7 12 372 10 1793 l-3 1784 -332 3 -333 2 0 238 c0
268 -10 358 -44 417 -56 95 -120 116 -381 124 l-200 6 -5 1485 c-5 1385 -7
1490 -24 1560 -66 278 -186 491 -385 691 -204 205 -404 313 -670 363 -73 14
-237 16 -1312 16 l-1228 0 -24 23 c-14 12 -526 535 -1140 1163 -694 711 -1136
1154 -1170 1177 -62 42 -85 51 -179 78 -81 23 -113 23 -197 -2z m5454 -5709
l0 -1625 -110 0 -110 0 -3 1615 c-1 888 0 1621 3 1628 3 9 32 12 112 10 l108
-3 0 -1625z"/>
<path d="M4270 12729 c-448 -47 -820 -382 -916 -827 -23 -104 -23 -330 0 -434
32 -147 104 -304 190 -417 68 -88 204 -211 295 -265 167 -100 341 -148 541
-148 341 0 633 146 840 419 63 83 142 243 169 342 115 419 -33 860 -376 1124
-205 157 -479 233 -743 206z"/>
<path d="M8307 5433 c-4 -3 -7 -809 -7 -1789 l0 -1784 26 -6 c14 -4 137 -4
272 -2 211 5 256 9 309 26 87 28 140 61 201 126 60 63 96 134 123 243 18 72
19 137 19 1399 0 1302 0 1326 -20 1402 -30 110 -66 178 -135 248 -120 123
-199 144 -541 144 -132 0 -244 -3 -247 -7z"/>
</g>
</svg>
