<?xml version="1.0" standalone="no"?>
<!DOCTYPE svg PUBLIC "-//W3C//DTD SVG 20010904//EN"
 "http://www.w3.org/TR/2001/REC-SVG-20010904/DTD/svg10.dtd">
<svg version="1.0" xmlns="http://www.w3.org/2000/svg"
 width="749.000000pt" height="1280.000000pt" viewBox="0 0 749.000000 1280.000000"
 preserveAspectRatio="xMidYMid meet">
<g transform="translate(0.000000,1280.000000) scale(0.100000,-0.100000)"
fill="#000000" stroke="none">
<path d="M2155 12788 c-256 -48 -387 -91 -530 -174 -339 -198 -571 -523 -647
-908 -25 -129 -27 -351 -3 -481 153 -849 1050 -1331 1842 -990 391 168 680
521 775 946 30 137 32 397 5 529 -89 420 -352 761 -732 946 -222 108 -532 166
-710 132z"/>
<path d="M2240 9864 c-427 -77 -774 -361 -913 -749 -48 -136 -62 -226 -61
-415 l0 -175 362 -1810 c262 -1307 372 -1839 397 -1913 148 -441 489 -734 938
-807 79 -13 312 -15 1593 -15 1236 0 1503 -2 1513 -13 7 -10 11 -489 13 -1698
l3 -1684 33 -94 c58 -165 138 -273 267 -360 86 -57 156 -85 279 -112 109 -23
141 -24 231 -3 200 45 311 107 421 236 81 95 128 210 163 394 8 43 11 639 11
2160 0 2072 0 2100 -20 2209 -26 137 -52 218 -101 319 -127 258 -346 437 -620
507 -83 22 -101 22 -1304 31 -671 5 -1224 13 -1229 18 -5 5 -147 701 -317
1547 -319 1595 -331 1647 -411 1807 -167 336 -463 559 -822 621 -108 18 -322
18 -426 -1z"/>
<path d="M405 8301 c-202 -58 -333 -196 -385 -405 -22 -88 -25 -132 -10 -185
6 -20 77 -364 160 -766 345 -1686 501 -2441 520 -2514 171 -669 631 -1258
1231 -1575 198 -104 378 -169 624 -224 l120 -26 1219 -3 c865 -3 1235 0 1273
7 82 17 188 75 248 136 56 57 113 158 136 239 21 75 18 257 -5 325 -62 183
-175 297 -356 356 -51 17 -129 19 -1175 24 -1103 6 -1121 7 -1216 28 -326 74
-559 206 -763 433 -88 98 -153 193 -214 314 -89 178 -125 298 -192 625 -21
107 -111 548 -199 980 -88 432 -210 1029 -271 1328 -61 300 -121 569 -133 600
-66 162 -180 265 -338 307 -72 20 -200 18 -274 -4z"/>
</g>
</svg>
