<?xml version="1.0" standalone="no"?>
<!DOCTYPE svg PUBLIC "-//W3C//DTD SVG 20010904//EN"
 "http://www.w3.org/TR/2001/REC-SVG-20010904/DTD/svg10.dtd">
<svg version="1.0" xmlns="http://www.w3.org/2000/svg"
 width="512.000000pt" height="512.000000pt" viewBox="0 0 512.000000 512.000000"
 preserveAspectRatio="xMidYMid meet">

<g transform="translate(0.000000,512.000000) scale(0.100000,-0.100000)"
fill="#000000" stroke="none">
<path d="M3970 5110 c-116 -25 -241 -121 -298 -231 -101 -194 -37 -444 144
-564 89 -59 153 -77 265 -73 87 3 103 7 171 40 93 46 167 122 211 215 43 93
50 219 17 317 -45 135 -153 242 -290 286 -50 15 -167 21 -220 10z"/>
<path d="M1412 4769 c-151 -29 -283 -147 -332 -295 -18 -52 -21 -83 -18 -157
3 -81 7 -101 39 -167 47 -97 112 -162 209 -209 66 -32 86 -36 167 -39 114 -5
195 19 281 82 134 99 200 261 172 425 -41 244 -277 408 -518 360z"/>
<path d="M3600 4026 c-136 -38 -238 -134 -285 -266 -12 -34 -155 -1058 -155
-1110 0 -7 -454 -10 -1387 -10 -983 0 -1400 -3 -1428 -11 -106 -30 -175 -121
-175 -231 0 -100 46 -173 135 -214 l50 -24 1543 0 1543 0 -6 -42 c-8 -63 -25
-220 -25 -239 0 -28 47 -69 79 -69 l30 0 3 -807 c3 -754 4 -811 21 -848 86
-191 358 -191 444 0 17 37 18 94 21 847 l3 808 54 0 55 0 2 -812 c3 -909 -2
-845 75 -922 106 -105 287 -81 368 48 l30 49 3 819 2 818 33 0 c53 0 77 33 77
107 0 60 -14 309 -25 425 l-5 57 36 10 c136 38 234 169 234 314 0 34 -31 278
-70 542 -63 436 -72 485 -99 540 -35 70 -100 142 -162 178 -91 53 -128 57
-569 56 -291 -1 -418 -4 -450 -13z"/>
<path d="M1044 3725 c-139 -30 -245 -121 -294 -254 -15 -38 -34 -156 -61 -366
-21 -170 -39 -311 -39 -312 0 -2 380 -3 845 -3 l845 0 0 22 c0 67 -73 583 -90
637 -48 150 -171 256 -327 281 -92 15 -805 11 -879 -5z"/>
<path d="M2206 1415 c-47 -16 -103 -69 -122 -112 -8 -18 -14 -63 -14 -102 l0
-69 -137 -4 c-158 -5 -206 -20 -260 -81 -51 -58 -55 -99 -51 -512 3 -356 4
-371 25 -410 27 -51 57 -79 113 -104 44 -20 62 -21 686 -21 l642 0 53 28 c39
20 62 41 84 77 l30 48 3 396 c3 425 2 441 -50 506 -43 54 -90 68 -250 73
l-148 4 0 75 c0 113 -49 188 -138 213 -57 15 -418 12 -466 -5z m434 -138 c22
-11 25 -19 28 -80 l3 -67 -231 0 -230 0 0 58 c0 59 11 81 50 95 32 12 355 7
380 -6z"/>
</g>
</svg>
