<?xml version="1.0" standalone="no"?>
<!DOCTYPE svg PUBLIC "-//W3C//DTD SVG 20010904//EN"
 "http://www.w3.org/TR/2001/REC-SVG-20010904/DTD/svg10.dtd">
<svg version="1.0" xmlns="http://www.w3.org/2000/svg"
 width="512.000000pt" height="512.000000pt" viewBox="0 0 512.000000 512.000000"
 preserveAspectRatio="xMidYMid meet">

<g transform="translate(0.000000,512.000000) scale(0.100000,-0.100000)"
fill="#000000" stroke="none">
<path d="M2444 4430 c-29 -12 -54 -49 -54 -81 0 -28 21 -53 90 -108 46 -37 79
-98 80 -146 0 -35 -15 -60 -76 -126 -56 -62 -85 -121 -91 -188 -9 -96 18 -157
122 -279 33 -39 45 -61 45 -85 -1 -48 -32 -108 -76 -146 -87 -73 -94 -82 -94
-113 0 -33 47 -88 75 -88 52 0 162 85 212 163 33 53 56 151 50 213 -7 65 -33
117 -95 185 -99 109 -98 139 4 250 85 93 109 183 80 296 -8 35 -26 80 -40 101
-30 48 -121 131 -163 148 -37 16 -40 16 -69 4z"/>
<path d="M1880 3886 c-106 -78 -162 -170 -168 -278 -6 -95 15 -150 92 -239 34
-41 66 -87 70 -102 16 -64 -22 -126 -132 -218 -55 -46 -37 -127 32 -145 60
-15 187 89 237 193 26 54 31 79 32 142 2 92 -21 142 -108 240 -57 64 -57 65
-53 117 5 61 37 110 104 157 54 38 71 75 54 117 -25 61 -91 67 -160 16z"/>
<path d="M3245 3888 c-60 -40 -130 -129 -152 -193 -24 -71 -22 -169 3 -225 12
-25 46 -73 77 -108 62 -68 73 -94 64 -149 -8 -47 -40 -91 -103 -141 -29 -23
-54 -52 -58 -67 -8 -33 12 -75 45 -94 24 -13 31 -13 72 3 61 23 147 109 183
182 20 42 30 78 32 126 6 92 -17 150 -91 235 -74 85 -81 103 -66 165 11 50 32
76 117 149 34 29 42 42 42 71 0 79 -81 102 -165 46z"/>
<path d="M29 2701 c-34 -34 -37 -68 -9 -103 14 -19 182 -95 629 -287 335 -143
620 -261 634 -261 13 0 36 9 51 21 35 27 37 91 4 121 -29 25 -1225 538 -1256
538 -13 0 -37 -13 -53 -29z"/>
<path d="M2737 2720 c-51 -13 -110 -44 -152 -81 l-35 -31 -50 17 c-81 27 -191
18 -267 -21 l-60 -31 -39 24 c-53 32 -106 45 -178 44 -109 -1 -210 -53 -269
-140 -30 -45 -34 -47 -62 -39 -16 5 -66 8 -110 6 -75 -2 -83 0 -130 30 -56 36
-131 62 -183 62 -39 0 -92 -45 -92 -79 0 -50 41 -91 91 -91 37 0 89 -29 133
-74 49 -51 61 -53 130 -30 62 21 125 14 176 -20 76 -50 130 -29 156 62 9 31
23 66 30 78 23 34 87 64 139 64 55 0 77 -10 130 -60 22 -21 50 -41 61 -44 29
-9 72 9 96 40 62 78 186 84 263 13 12 -10 35 -22 53 -25 27 -6 36 -2 64 28 18
18 41 48 50 66 39 72 161 92 233 38 45 -35 65 -75 72 -143 9 -81 32 -96 137
-87 l81 6 60 -41 c88 -60 113 -55 169 34 50 77 117 106 194 86 48 -13 86 -50
118 -114 31 -61 60 -73 131 -56 74 17 119 2 182 -61 55 -55 75 -60 137 -34 59
25 122 14 186 -29 63 -44 99 -47 133 -12 58 57 13 139 -104 194 -48 22 -70 26
-153 27 -88 1 -101 3 -135 27 -58 40 -109 58 -182 64 -63 5 -67 7 -94 45 -34
48 -104 94 -176 115 -101 29 -229 -2 -315 -77 l-38 -33 -46 16 c-26 10 -64 17
-84 17 -35 0 -38 3 -61 54 -55 120 -164 196 -287 202 -36 2 -82 -1 -103 -6z"/>
<path d="M50 1867 c-46 -23 -56 -56 -42 -138 16 -95 54 -170 120 -236 84 -85
150 -113 291 -122 l93 -6 23 -92 c74 -292 286 -500 585 -574 82 -21 2798 -21
2880 0 299 74 511 282 585 574 l23 92 93 6 c141 9 207 37 291 122 66 66 104
140 120 235 14 83 4 116 -42 139 -37 19 -4983 19 -5020 0z m4880 -162 c0 -20
-45 -88 -72 -108 -64 -47 -79 -51 -227 -57 -139 -6 -144 -7 -166 -32 -16 -19
-24 -45 -29 -97 -26 -260 -190 -461 -441 -538 -57 -17 -128 -18 -1435 -18
-1317 0 -1378 1 -1435 19 -171 53 -302 162 -380 317 -19 37 -55 150 -55 173 0
3 793 6 1763 6 l1764 0 20 22 c30 34 34 55 19 92 -9 23 -24 37 -46 45 -24 8
-542 11 -1937 11 -2079 0 -1931 -4 -2010 56 -28 21 -73 89 -73 109 0 3 1066 5
2370 5 1304 0 2370 -2 2370 -5z"/>
</g>
</svg>
