<?xml version="1.0" encoding="iso-8859-1"?>
<!-- Uploaded to: SVG Repo, www.svgrepo.com, Generator: SVG Repo Mixer Tools -->
<svg fill="#000000" height="800px" width="800px" version="1.1" id="Layer_1" xmlns="http://www.w3.org/2000/svg" xmlns:xlink="http://www.w3.org/1999/xlink" 
	 viewBox="0 0 512.002 512.002" xml:space="preserve">
<g>
	<g>
		<g>
			<path d="M281.059,355.902H230.94c-4.621,0-8.367,3.746-8.367,8.367s3.746,8.367,8.367,8.367h50.117
				c4.621,0,8.367-3.746,8.367-8.367S285.68,355.902,281.059,355.902z"/>
			<circle cx="436.097" cy="364.269" r="4.635"/>
			<path d="M490.39,59.248H21.61C9.694,59.248,0,68.942,0,80.858v294.043c0,11.915,9.694,21.609,21.61,21.609h178.548v15.673
				h-22.572c-7.535,0-13.664,6.129-13.664,13.664v13.243c0,7.534,6.13,13.665,13.664,13.665h156.826
				c7.534,0,13.664-6.131,13.664-13.665v-13.243c0-7.534-6.13-13.664-13.664-13.664h-22.572V396.51h178.551
				c11.916,0,21.61-9.694,21.61-21.609V80.858C512,68.942,502.306,59.248,490.39,59.248z M331.341,428.917v7.101H180.655v-7.101
				H331.341z M216.893,412.183V396.51h78.212v15.673H216.893z M495.266,374.901h-0.001c0,2.642-2.232,4.874-4.875,4.874H21.61
				c-2.643,0-4.875-2.232-4.875-4.874V80.858c0-2.643,2.232-4.875,4.875-4.875h468.781c2.643,0,4.875,2.232,4.875,4.875V374.901z"/>
			<path d="M470.527,92.355H41.473c-4.621,0-8.367,3.746-8.367,8.367v242.36c0,4.621,3.746,8.367,8.367,8.367h429.053
				c4.621,0,8.367-3.746,8.367-8.367v-242.36C478.894,96.101,475.148,92.355,470.527,92.355z M462.159,334.715H49.841V109.09
				h412.319V334.715z"/>
		</g>
	</g>
</g>
</svg>